<mxfile host="app.diagrams.net" modified="2023-12-06T16:33:46.081Z" agent="Mozilla/5.0 (X11; Linux x86_64; rv:109.0) Gecko/20100101 Firefox/116.0" etag="KNzHBhDMfCoAGEgxBo82" version="22.1.5" type="device">
  <diagram name="Page-1" id="D31qo2aZtHC0SI3gXc6j">
    <mxGraphModel dx="1434" dy="718" grid="1" gridSize="10" guides="1" tooltips="1" connect="1" arrows="1" fold="1" page="1" pageScale="1" pageWidth="850" pageHeight="1100" math="0" shadow="0">
      <root>
        <mxCell id="0" />
        <mxCell id="1" parent="0" />
        <mxCell id="f0bAoURrpKA2q4VBi6K8-9" style="edgeStyle=orthogonalEdgeStyle;rounded=0;orthogonalLoop=1;jettySize=auto;html=1;entryX=0.5;entryY=1;entryDx=0;entryDy=0;" parent="1" source="f0bAoURrpKA2q4VBi6K8-1" target="f0bAoURrpKA2q4VBi6K8-2" edge="1">
          <mxGeometry relative="1" as="geometry">
            <Array as="points">
              <mxPoint x="250" y="390" />
            </Array>
          </mxGeometry>
        </mxCell>
        <mxCell id="f0bAoURrpKA2q4VBi6K8-16" style="edgeStyle=orthogonalEdgeStyle;rounded=0;orthogonalLoop=1;jettySize=auto;html=1;exitX=1;exitY=0.5;exitDx=0;exitDy=0;entryX=0.5;entryY=1;entryDx=0;entryDy=0;" parent="1" source="f0bAoURrpKA2q4VBi6K8-1" target="f0bAoURrpKA2q4VBi6K8-8" edge="1">
          <mxGeometry relative="1" as="geometry" />
        </mxCell>
        <mxCell id="f0bAoURrpKA2q4VBi6K8-31" style="edgeStyle=orthogonalEdgeStyle;rounded=0;orthogonalLoop=1;jettySize=auto;html=1;exitX=0.75;exitY=1;exitDx=0;exitDy=0;" parent="1" source="f0bAoURrpKA2q4VBi6K8-1" target="f0bAoURrpKA2q4VBi6K8-30" edge="1">
          <mxGeometry relative="1" as="geometry">
            <Array as="points">
              <mxPoint x="433" y="490" />
            </Array>
          </mxGeometry>
        </mxCell>
        <mxCell id="f0bAoURrpKA2q4VBi6K8-59" style="edgeStyle=orthogonalEdgeStyle;rounded=0;orthogonalLoop=1;jettySize=auto;html=1;exitX=0.5;exitY=1;exitDx=0;exitDy=0;" parent="1" source="f0bAoURrpKA2q4VBi6K8-1" target="f0bAoURrpKA2q4VBi6K8-29" edge="1">
          <mxGeometry relative="1" as="geometry" />
        </mxCell>
        <mxCell id="f0bAoURrpKA2q4VBi6K8-1" value="&lt;b&gt;Unsicherheiten der Betriebssimulation des Versorgungsspeichers&lt;/b&gt;" style="rounded=0;whiteSpace=wrap;html=1;fillColor=#f8cecc;strokeColor=#b85450;" parent="1" vertex="1">
          <mxGeometry x="310" y="350" width="170" height="80" as="geometry" />
        </mxCell>
        <mxCell id="f0bAoURrpKA2q4VBi6K8-61" style="edgeStyle=orthogonalEdgeStyle;rounded=0;orthogonalLoop=1;jettySize=auto;html=1;entryX=1;entryY=0.5;entryDx=0;entryDy=0;" parent="1" source="f0bAoURrpKA2q4VBi6K8-2" target="f0bAoURrpKA2q4VBi6K8-4" edge="1">
          <mxGeometry relative="1" as="geometry" />
        </mxCell>
        <mxCell id="f0bAoURrpKA2q4VBi6K8-62" style="edgeStyle=orthogonalEdgeStyle;rounded=0;orthogonalLoop=1;jettySize=auto;html=1;exitX=0;exitY=0.5;exitDx=0;exitDy=0;entryX=1;entryY=0.5;entryDx=0;entryDy=0;" parent="1" source="f0bAoURrpKA2q4VBi6K8-2" target="f0bAoURrpKA2q4VBi6K8-3" edge="1">
          <mxGeometry relative="1" as="geometry" />
        </mxCell>
        <mxCell id="f0bAoURrpKA2q4VBi6K8-63" style="edgeStyle=orthogonalEdgeStyle;rounded=0;orthogonalLoop=1;jettySize=auto;html=1;exitX=0;exitY=0.5;exitDx=0;exitDy=0;entryX=1;entryY=0.5;entryDx=0;entryDy=0;" parent="1" source="f0bAoURrpKA2q4VBi6K8-2" target="f0bAoURrpKA2q4VBi6K8-5" edge="1">
          <mxGeometry relative="1" as="geometry" />
        </mxCell>
        <mxCell id="f0bAoURrpKA2q4VBi6K8-64" style="edgeStyle=orthogonalEdgeStyle;rounded=0;orthogonalLoop=1;jettySize=auto;html=1;entryX=1;entryY=0.5;entryDx=0;entryDy=0;" parent="1" source="f0bAoURrpKA2q4VBi6K8-2" target="f0bAoURrpKA2q4VBi6K8-6" edge="1">
          <mxGeometry relative="1" as="geometry">
            <Array as="points">
              <mxPoint x="320" y="280" />
              <mxPoint x="320" y="100" />
            </Array>
          </mxGeometry>
        </mxCell>
        <mxCell id="f0bAoURrpKA2q4VBi6K8-65" style="edgeStyle=orthogonalEdgeStyle;rounded=0;orthogonalLoop=1;jettySize=auto;html=1;exitX=1;exitY=0.5;exitDx=0;exitDy=0;entryX=1;entryY=0.5;entryDx=0;entryDy=0;" parent="1" source="f0bAoURrpKA2q4VBi6K8-2" target="f0bAoURrpKA2q4VBi6K8-7" edge="1">
          <mxGeometry relative="1" as="geometry">
            <Array as="points">
              <mxPoint x="320" y="280" />
              <mxPoint x="320" y="170" />
            </Array>
          </mxGeometry>
        </mxCell>
        <mxCell id="f0bAoURrpKA2q4VBi6K8-2" value="Datengrundlage" style="rounded=0;whiteSpace=wrap;html=1;fillColor=#fff2cc;strokeColor=#d6b656;" parent="1" vertex="1">
          <mxGeometry x="190" y="250" width="120" height="60" as="geometry" />
        </mxCell>
        <mxCell id="f0bAoURrpKA2q4VBi6K8-3" value="Repr채sentativit채t" style="rounded=0;whiteSpace=wrap;html=1;" parent="1" vertex="1">
          <mxGeometry y="260" width="120" height="40" as="geometry" />
        </mxCell>
        <mxCell id="f0bAoURrpKA2q4VBi6K8-4" value="Konsistenz" style="rounded=0;whiteSpace=wrap;html=1;" parent="1" vertex="1">
          <mxGeometry y="210" width="120" height="40" as="geometry" />
        </mxCell>
        <mxCell id="f0bAoURrpKA2q4VBi6K8-5" value="Homogenit채t" style="rounded=0;whiteSpace=wrap;html=1;" parent="1" vertex="1">
          <mxGeometry y="310" width="120" height="40" as="geometry" />
        </mxCell>
        <mxCell id="f0bAoURrpKA2q4VBi6K8-6" value="&lt;div&gt;Messfehler der &lt;br&gt;&lt;/div&gt;&lt;div&gt;Wasserstands- /&lt;/div&gt;&lt;div&gt;Durchflussmessung&lt;br&gt;&lt;/div&gt;" style="rounded=0;whiteSpace=wrap;html=1;" parent="1" vertex="1">
          <mxGeometry x="153" y="71" width="130" height="60" as="geometry" />
        </mxCell>
        <mxCell id="f0bAoURrpKA2q4VBi6K8-19" style="edgeStyle=orthogonalEdgeStyle;rounded=0;orthogonalLoop=1;jettySize=auto;html=1;exitX=0;exitY=0.5;exitDx=0;exitDy=0;entryX=0.25;entryY=1;entryDx=0;entryDy=0;" parent="1" source="f0bAoURrpKA2q4VBi6K8-8" target="f0bAoURrpKA2q4VBi6K8-17" edge="1">
          <mxGeometry relative="1" as="geometry" />
        </mxCell>
        <mxCell id="f0bAoURrpKA2q4VBi6K8-8" value="&lt;div&gt;Generierung von&lt;/div&gt;&lt;div&gt;Durchflusszeitreihen&lt;br&gt;&lt;/div&gt;" style="rounded=0;whiteSpace=wrap;html=1;fillColor=#fff2cc;strokeColor=#d6b656;" parent="1" vertex="1">
          <mxGeometry x="450" y="255" width="150" height="60" as="geometry" />
        </mxCell>
        <mxCell id="f0bAoURrpKA2q4VBi6K8-22" style="edgeStyle=orthogonalEdgeStyle;rounded=0;orthogonalLoop=1;jettySize=auto;html=1;entryX=0;entryY=0.5;entryDx=0;entryDy=0;" parent="1" source="f0bAoURrpKA2q4VBi6K8-17" target="f0bAoURrpKA2q4VBi6K8-20" edge="1">
          <mxGeometry relative="1" as="geometry">
            <Array as="points">
              <mxPoint x="370" y="205" />
              <mxPoint x="370" y="85" />
            </Array>
          </mxGeometry>
        </mxCell>
        <mxCell id="f0bAoURrpKA2q4VBi6K8-23" style="edgeStyle=orthogonalEdgeStyle;rounded=0;orthogonalLoop=1;jettySize=auto;html=1;entryX=0;entryY=0.5;entryDx=0;entryDy=0;" parent="1" source="f0bAoURrpKA2q4VBi6K8-17" target="f0bAoURrpKA2q4VBi6K8-21" edge="1">
          <mxGeometry relative="1" as="geometry">
            <Array as="points">
              <mxPoint x="370" y="205" />
              <mxPoint x="370" y="135" />
            </Array>
          </mxGeometry>
        </mxCell>
        <mxCell id="f0bAoURrpKA2q4VBi6K8-17" value="Stochastisches Modell" style="rounded=0;whiteSpace=wrap;html=1;" parent="1" vertex="1">
          <mxGeometry x="390" y="185" width="120" height="40" as="geometry" />
        </mxCell>
        <mxCell id="f0bAoURrpKA2q4VBi6K8-18" value="Modellparametrisierung" style="rounded=0;whiteSpace=wrap;html=1;" parent="1" vertex="1">
          <mxGeometry x="540" y="145" width="160" height="40" as="geometry" />
        </mxCell>
        <mxCell id="f0bAoURrpKA2q4VBi6K8-20" value="Komplexit채t" style="rounded=0;whiteSpace=wrap;html=1;" parent="1" vertex="1">
          <mxGeometry x="390" y="65" width="120" height="40" as="geometry" />
        </mxCell>
        <mxCell id="f0bAoURrpKA2q4VBi6K8-21" value="Annahmen" style="rounded=0;whiteSpace=wrap;html=1;" parent="1" vertex="1">
          <mxGeometry x="390" y="115" width="120" height="40" as="geometry" />
        </mxCell>
        <mxCell id="f0bAoURrpKA2q4VBi6K8-26" value="&lt;div&gt;Anzahl zugrundeliegender&lt;/div&gt;&lt;div&gt;Zeitreihen &lt;br&gt;&lt;/div&gt;" style="rounded=0;whiteSpace=wrap;html=1;" parent="1" vertex="1">
          <mxGeometry x="681" y="464" width="200" height="50" as="geometry" />
        </mxCell>
        <mxCell id="f0bAoURrpKA2q4VBi6K8-28" style="edgeStyle=orthogonalEdgeStyle;rounded=0;orthogonalLoop=1;jettySize=auto;html=1;exitX=0.5;exitY=0;exitDx=0;exitDy=0;entryX=0.25;entryY=1;entryDx=0;entryDy=0;" parent="1" source="f0bAoURrpKA2q4VBi6K8-8" target="f0bAoURrpKA2q4VBi6K8-18" edge="1">
          <mxGeometry relative="1" as="geometry" />
        </mxCell>
        <mxCell id="f0bAoURrpKA2q4VBi6K8-29" value="sonstige" style="rounded=0;whiteSpace=wrap;html=1;fillColor=#fff2cc;strokeColor=#d6b656;" parent="1" vertex="1">
          <mxGeometry x="320" y="520" width="150" height="60" as="geometry" />
        </mxCell>
        <mxCell id="f0bAoURrpKA2q4VBi6K8-39" style="edgeStyle=orthogonalEdgeStyle;rounded=0;orthogonalLoop=1;jettySize=auto;html=1;exitX=0.5;exitY=1;exitDx=0;exitDy=0;entryX=0;entryY=0.5;entryDx=0;entryDy=0;" parent="1" source="f0bAoURrpKA2q4VBi6K8-30" target="f0bAoURrpKA2q4VBi6K8-34" edge="1">
          <mxGeometry relative="1" as="geometry" />
        </mxCell>
        <mxCell id="f0bAoURrpKA2q4VBi6K8-55" style="edgeStyle=orthogonalEdgeStyle;rounded=0;orthogonalLoop=1;jettySize=auto;html=1;entryX=0;entryY=0.5;entryDx=0;entryDy=0;" parent="1" source="f0bAoURrpKA2q4VBi6K8-30" target="f0bAoURrpKA2q4VBi6K8-32" edge="1">
          <mxGeometry relative="1" as="geometry">
            <Array as="points">
              <mxPoint x="600" y="420" />
            </Array>
          </mxGeometry>
        </mxCell>
        <mxCell id="f0bAoURrpKA2q4VBi6K8-56" style="edgeStyle=orthogonalEdgeStyle;rounded=0;orthogonalLoop=1;jettySize=auto;html=1;entryX=0;entryY=0.5;entryDx=0;entryDy=0;" parent="1" target="f0bAoURrpKA2q4VBi6K8-26" edge="1">
          <mxGeometry relative="1" as="geometry">
            <mxPoint x="666" y="489" as="sourcePoint" />
          </mxGeometry>
        </mxCell>
        <mxCell id="f0bAoURrpKA2q4VBi6K8-30" value="&lt;div&gt;Bemessung der &lt;br&gt;&lt;/div&gt;&lt;div&gt;Speicherkapazit채t&lt;br&gt;&lt;/div&gt;" style="rounded=0;whiteSpace=wrap;html=1;fillColor=#fff2cc;strokeColor=#d6b656;" parent="1" vertex="1">
          <mxGeometry x="510" y="459" width="150" height="60" as="geometry" />
        </mxCell>
        <mxCell id="f0bAoURrpKA2q4VBi6K8-52" style="edgeStyle=orthogonalEdgeStyle;rounded=0;orthogonalLoop=1;jettySize=auto;html=1;entryX=1;entryY=0.5;entryDx=0;entryDy=0;" parent="1" source="f0bAoURrpKA2q4VBi6K8-32" target="f0bAoURrpKA2q4VBi6K8-36" edge="1">
          <mxGeometry relative="1" as="geometry">
            <Array as="points">
              <mxPoint x="900" y="420" />
              <mxPoint x="900" y="360" />
            </Array>
          </mxGeometry>
        </mxCell>
        <mxCell id="RINXJByemZXUkjSyQKJZ-3" style="edgeStyle=orthogonalEdgeStyle;rounded=0;orthogonalLoop=1;jettySize=auto;html=1;exitX=1;exitY=0.5;exitDx=0;exitDy=0;entryX=1;entryY=0.5;entryDx=0;entryDy=0;" edge="1" parent="1" source="f0bAoURrpKA2q4VBi6K8-32" target="f0bAoURrpKA2q4VBi6K8-37">
          <mxGeometry relative="1" as="geometry" />
        </mxCell>
        <mxCell id="RINXJByemZXUkjSyQKJZ-4" style="edgeStyle=orthogonalEdgeStyle;rounded=0;orthogonalLoop=1;jettySize=auto;html=1;exitX=1;exitY=0.5;exitDx=0;exitDy=0;entryX=1;entryY=0.5;entryDx=0;entryDy=0;" edge="1" parent="1" source="f0bAoURrpKA2q4VBi6K8-32" target="f0bAoURrpKA2q4VBi6K8-33">
          <mxGeometry relative="1" as="geometry" />
        </mxCell>
        <mxCell id="f0bAoURrpKA2q4VBi6K8-32" value="Anpassung der theoretischen Verteilung" style="rounded=0;whiteSpace=wrap;html=1;" parent="1" vertex="1">
          <mxGeometry x="681" y="400" width="200" height="40" as="geometry" />
        </mxCell>
        <mxCell id="f0bAoURrpKA2q4VBi6K8-33" value="Auswahl der Verteilung" style="rounded=0;whiteSpace=wrap;html=1;" parent="1" vertex="1">
          <mxGeometry x="700" y="210" width="180" height="40" as="geometry" />
        </mxCell>
        <mxCell id="f0bAoURrpKA2q4VBi6K8-34" value="Zuverl채ssigkeitsniveau" style="rounded=0;whiteSpace=wrap;html=1;" parent="1" vertex="1">
          <mxGeometry x="681" y="540" width="200" height="40" as="geometry" />
        </mxCell>
        <mxCell id="f0bAoURrpKA2q4VBi6K8-36" value="Wahl der Fehlermetrik / Anpassungsg체te" style="rounded=0;whiteSpace=wrap;html=1;" parent="1" vertex="1">
          <mxGeometry x="700" y="335" width="180" height="50" as="geometry" />
        </mxCell>
        <mxCell id="f0bAoURrpKA2q4VBi6K8-37" value="Wahl des Parametersch채tzverfahrens" style="rounded=0;whiteSpace=wrap;html=1;" parent="1" vertex="1">
          <mxGeometry x="700" y="265" width="180" height="50" as="geometry" />
        </mxCell>
        <mxCell id="f0bAoURrpKA2q4VBi6K8-69" style="edgeStyle=orthogonalEdgeStyle;rounded=0;orthogonalLoop=1;jettySize=auto;html=1;exitX=0.5;exitY=1;exitDx=0;exitDy=0;entryX=1;entryY=0.5;entryDx=0;entryDy=0;" parent="1" source="f0bAoURrpKA2q4VBi6K8-44" target="f0bAoURrpKA2q4VBi6K8-47" edge="1">
          <mxGeometry relative="1" as="geometry" />
        </mxCell>
        <mxCell id="f0bAoURrpKA2q4VBi6K8-44" value="&lt;div&gt;Simulation des&lt;/div&gt;&lt;div&gt;Speichers&lt;br&gt;&lt;/div&gt;" style="rounded=0;whiteSpace=wrap;html=1;fillColor=#fff2cc;strokeColor=#d6b656;" parent="1" vertex="1">
          <mxGeometry x="130" y="460" width="150" height="60" as="geometry" />
        </mxCell>
        <mxCell id="f0bAoURrpKA2q4VBi6K8-47" value="Vereinfachungen der Speichergleichung" style="rounded=0;whiteSpace=wrap;html=1;" parent="1" vertex="1">
          <mxGeometry x="20" y="530" width="160" height="70" as="geometry" />
        </mxCell>
        <mxCell id="f0bAoURrpKA2q4VBi6K8-7" value="&lt;div&gt;Approximations- oder&lt;/div&gt;&lt;div&gt;Extrapolationsfehler&amp;nbsp;&lt;/div&gt;&lt;div&gt;der W-Q-Beziehung&lt;br&gt;&lt;/div&gt;" style="rounded=0;whiteSpace=wrap;html=1;" parent="1" vertex="1">
          <mxGeometry x="153" y="141" width="130" height="60" as="geometry" />
        </mxCell>
        <mxCell id="f0bAoURrpKA2q4VBi6K8-66" style="edgeStyle=orthogonalEdgeStyle;rounded=0;orthogonalLoop=1;jettySize=auto;html=1;exitX=0.25;exitY=1;exitDx=0;exitDy=0;entryX=1;entryY=0.5;entryDx=0;entryDy=0;" parent="1" source="f0bAoURrpKA2q4VBi6K8-1" target="f0bAoURrpKA2q4VBi6K8-44" edge="1">
          <mxGeometry relative="1" as="geometry" />
        </mxCell>
      </root>
    </mxGraphModel>
  </diagram>
</mxfile>
